<svg width="62" height="23" viewBox="0 0 62 23" fill="none" xmlns="http://www.w3.org/2000/svg">
<path d="M8.48 11.912C8.75733 11.912 8.976 12.008 9.136 12.2C9.296 12.392 9.376 12.6587 9.376 13C9.376 13.0853 9.37067 13.176 9.36 13.272C9.34933 13.3573 9.33333 13.432 9.312 13.496C9.088 13.4427 8.84267 13.4107 8.576 13.4C8.512 13.8693 8.34133 14.3653 8.064 14.888C7.78667 15.4 7.45067 15.8853 7.056 16.344C6.66133 16.792 6.22933 17.1867 5.76 17.528C5.29067 17.8693 4.82667 18.0987 4.368 18.216C2.93867 18.184 1.89333 17.8107 1.232 17.096C0.581333 16.392 0.256 15.288 0.256 13.784C0.256 12.6853 0.458667 11.624 0.864 10.6C1.26933 9.56533 1.808 8.648 2.48 7.848C3.152 7.048 3.92 6.408 4.784 5.928C5.65867 5.43733 6.56533 5.192 7.504 5.192C8.24 5.192 8.81067 5.34667 9.216 5.656C9.632 5.96533 9.84 6.40267 9.84 6.968C9.84 7.34133 9.74933 7.688 9.568 8.008C9.39733 8.328 9.10933 8.67467 8.704 9.048C8.45867 8.97333 8.24533 8.84533 8.064 8.664C7.88267 8.472 7.77067 8.25333 7.728 8.008C8.09067 7.74133 8.34667 7.496 8.496 7.272C8.64533 7.048 8.72 6.78133 8.72 6.472C8.72 5.98133 8.42667 5.736 7.84 5.736C7.36 5.736 6.84267 5.91733 6.288 6.28C5.744 6.632 5.19467 7.144 4.64 7.816C3.85067 8.76533 3.27467 9.74667 2.912 10.76C2.54933 11.7627 2.368 12.8933 2.368 14.152C2.368 14.6213 2.416 15.048 2.512 15.432C2.608 15.816 2.736 16.152 2.896 16.44C3.056 16.728 3.24267 16.9573 3.456 17.128C3.68 17.2987 3.92 17.3947 4.176 17.416C4.51733 17.3413 4.85867 17.1707 5.2 16.904C5.54133 16.6267 5.85067 16.3067 6.128 15.944C6.416 15.5707 6.656 15.176 6.848 14.76C7.05067 14.3333 7.17333 13.928 7.216 13.544C6.91733 13.608 6.62933 13.672 6.352 13.736C6.08533 13.7893 5.82933 13.816 5.584 13.816C5.264 13.816 4.98133 13.736 4.736 13.576C4.50133 13.416 4.34133 13.1973 4.256 12.92C4.448 12.8133 4.72533 12.7013 5.088 12.584C5.46133 12.4667 5.856 12.36 6.272 12.264C6.688 12.1573 7.09333 12.072 7.488 12.008C7.89333 11.944 8.224 11.912 8.48 11.912ZM15.4783 10.536C15.5849 10.536 15.7076 10.5573 15.8463 10.6C15.9956 10.632 16.1289 10.68 16.2463 10.744C16.3636 10.7973 16.4596 10.856 16.5343 10.92C16.6196 10.984 16.6623 11.0427 16.6623 11.096C16.4489 11.544 16.2516 11.9973 16.0703 12.456C15.8889 12.904 15.7343 13.336 15.6063 13.752C15.4783 14.168 15.3769 14.5573 15.3023 14.92C15.2383 15.2827 15.2063 15.5973 15.2063 15.864C15.2063 16.1627 15.2383 16.4133 15.3023 16.616C15.3663 16.808 15.4729 16.9467 15.6223 17.032C15.4943 17.1173 15.3289 17.1867 15.1263 17.24C14.9236 17.2933 14.7423 17.32 14.5823 17.32C14.0063 17.32 13.7183 16.9253 13.7183 16.136C13.7183 15.528 13.9209 14.696 14.3263 13.64C14.1129 14.1307 13.8676 14.5947 13.5903 15.032C13.3129 15.4587 13.0303 15.8373 12.7423 16.168C12.4543 16.4987 12.1609 16.7707 11.8623 16.984C11.5743 17.1867 11.3076 17.3093 11.0623 17.352C10.6676 17.3307 10.3476 17.144 10.1023 16.792C9.85692 16.4293 9.73425 15.9707 9.73425 15.416C9.73425 14.8187 9.86225 14.1893 10.1183 13.528C10.3743 12.8667 10.6996 12.2533 11.0943 11.688C11.4996 11.1227 11.9369 10.6533 12.4062 10.28C12.8756 9.896 13.3289 9.69333 13.7663 9.672C13.8729 9.704 13.9903 9.768 14.1183 9.864C14.2569 9.96 14.3849 10.072 14.5023 10.2C14.6303 10.328 14.7369 10.4613 14.8223 10.6C14.9076 10.728 14.9556 10.84 14.9663 10.936C14.5396 11 14.0969 11.208 13.6383 11.56C13.1903 11.912 12.7796 12.3387 12.4062 12.84C12.0436 13.3307 11.7449 13.8587 11.5103 14.424C11.2756 14.9893 11.1583 15.5173 11.1583 16.008C11.1583 16.2107 11.2329 16.3387 11.3823 16.392C11.6916 16.328 12.0489 16.0667 12.4543 15.608C12.8596 15.1387 13.3503 14.4187 13.9263 13.448C14.0329 13.256 14.1503 13.0427 14.2783 12.808C14.4169 12.5733 14.5556 12.328 14.6943 12.072C14.8329 11.816 14.9663 11.56 15.0943 11.304C15.2329 11.0373 15.3609 10.7813 15.4783 10.536ZM17.0899 16.68C17.1432 16.3707 17.2339 15.9653 17.3619 15.464C17.5005 14.952 17.6605 14.4133 17.8419 13.848C18.0232 13.272 18.2152 12.696 18.4179 12.12C18.6205 11.544 18.8179 11.0267 19.0099 10.568C19.1485 10.2373 19.2712 9.98133 19.3779 9.8C19.4845 9.608 19.6019 9.448 19.7299 9.32C19.8792 9.34133 20.0339 9.37867 20.1939 9.432C20.3539 9.48533 20.5085 9.54933 20.6579 9.624C20.8072 9.69867 20.9405 9.77867 21.0579 9.864C21.1752 9.93867 21.2659 10.0133 21.3299 10.088C21.0419 10.4293 20.7859 10.8187 20.5619 11.256C20.3485 11.6933 20.1299 12.2533 19.9059 12.936C20.4819 12.424 20.9885 11.9333 21.4259 11.464C21.8739 10.9947 22.2899 10.472 22.6739 9.896C22.7379 9.84267 22.8499 9.816 23.0099 9.816C23.1592 9.816 23.3032 9.84267 23.4419 9.896C23.5805 9.93867 23.6765 10.0027 23.7299 10.088C23.5379 10.6 23.4419 11.1067 23.4419 11.608C23.4419 12.0773 23.5112 12.4293 23.6499 12.664C23.6392 12.728 23.5645 12.8507 23.4259 13.032C23.2979 13.2133 23.1539 13.384 22.9939 13.544C22.7059 13.3947 22.4499 13.192 22.2259 12.936C22.0019 12.6693 21.8365 12.3813 21.7299 12.072C21.2285 12.424 20.8019 12.7707 20.4499 13.112C20.0979 13.4427 19.7939 13.816 19.5379 14.232C19.2925 14.6373 19.0792 15.1067 18.8979 15.64C18.7272 16.1733 18.5619 16.808 18.4019 17.544C18.3059 17.5333 18.1885 17.496 18.0499 17.432C17.9219 17.3787 17.7885 17.3093 17.6499 17.224C17.5219 17.1387 17.4045 17.048 17.2979 16.952C17.1912 16.856 17.1219 16.7653 17.0899 16.68ZM29.943 14.52C29.6977 15.2987 29.4523 16.008 29.207 16.648C28.9617 17.288 28.7003 17.8747 28.423 18.408C28.1457 18.952 27.847 19.448 27.527 19.896C27.207 20.3547 26.855 20.7867 26.471 21.192C25.9803 21.704 25.4737 22.0933 24.951 22.36C24.4283 22.6373 23.9057 22.776 23.383 22.776C23.1163 22.776 22.8497 22.744 22.583 22.68C22.327 22.6267 22.087 22.5467 21.863 22.44C21.6283 22.344 21.4257 22.2267 21.255 22.088C21.0737 21.96 20.9457 21.8213 20.871 21.672C20.871 21.544 20.9457 21.432 21.095 21.336C21.223 21.4533 21.3297 21.544 21.415 21.608C21.5003 21.672 21.5857 21.7253 21.671 21.768C21.7457 21.8107 21.831 21.8373 21.927 21.848C22.0123 21.8587 22.1137 21.864 22.231 21.864C22.839 21.864 23.431 21.6827 24.007 21.32C24.5937 20.968 25.143 20.4613 25.655 19.8C26.1777 19.1493 26.6523 18.3547 27.079 17.416C27.5057 16.488 27.8683 15.448 28.167 14.296C28.0283 14.5093 27.8577 14.7707 27.655 15.08C27.4523 15.3893 27.2283 15.6987 26.983 16.008C26.7377 16.3067 26.4817 16.5787 26.215 16.824C25.959 17.0693 25.7083 17.2347 25.463 17.32C25.2923 17.3093 25.111 17.272 24.919 17.208C24.7377 17.1547 24.5617 17.0747 24.391 16.968C24.231 16.8613 24.087 16.7333 23.959 16.584C23.831 16.4347 23.7457 16.264 23.703 16.072C23.703 15.7627 23.7137 15.5173 23.735 15.336C23.7563 15.144 23.7937 14.936 23.847 14.712C23.943 14.3067 24.0817 13.848 24.263 13.336C24.455 12.824 24.6737 12.3227 24.919 11.832C25.175 11.3307 25.4523 10.8667 25.751 10.44C26.0603 10.0027 26.3803 9.66133 26.711 9.416C26.7963 9.416 26.903 9.42667 27.031 9.448C27.159 9.45867 27.2923 9.48533 27.431 9.528C27.5697 9.57067 27.703 9.624 27.831 9.688C27.959 9.74133 28.071 9.816 28.167 9.912C28.0497 10.0187 27.7937 10.376 27.399 10.984C27.0043 11.592 26.567 12.4667 26.087 13.608C26.0337 13.7253 25.9697 13.896 25.895 14.12C25.8203 14.344 25.7457 14.5787 25.671 14.824C25.607 15.0693 25.5483 15.3093 25.495 15.544C25.4417 15.7787 25.415 15.9653 25.415 16.104C25.415 16.1893 25.4257 16.2533 25.447 16.296C25.479 16.3387 25.5057 16.3707 25.527 16.392C25.719 16.36 25.975 16.2053 26.295 15.928C26.615 15.64 26.9777 15.1973 27.383 14.6C27.639 14.216 27.8737 13.8373 28.087 13.464C28.3003 13.08 28.5083 12.696 28.711 12.312C28.9243 11.928 29.143 11.5333 29.367 11.128C29.591 10.7227 29.831 10.3067 30.087 9.88C30.2257 9.88 30.375 9.896 30.535 9.928C30.695 9.96 30.8497 10.0027 30.999 10.056C31.1483 10.0987 31.2763 10.152 31.383 10.216C31.5003 10.2693 31.5857 10.328 31.639 10.392C31.3083 11.096 30.999 11.784 30.711 12.456C30.423 13.128 30.167 13.816 29.943 14.52ZM41.6316 5.176C42.037 5.176 42.4583 5.25067 42.8956 5.4C43.333 5.54933 43.717 5.74133 44.0476 5.976C43.941 6.52 43.8396 7.01067 43.7436 7.448C43.6583 7.88533 43.5783 8.28533 43.5036 8.648C43.429 9 43.3543 9.32533 43.2796 9.624C43.2156 9.912 43.1516 10.184 43.0876 10.44C42.8316 11.4 42.565 12.2693 42.2876 13.048C42.021 13.816 41.733 14.5093 41.4236 15.128C41.125 15.7467 40.805 16.296 40.4636 16.776C40.133 17.256 39.7756 17.6773 39.3916 18.04C39.0183 18.392 38.645 18.68 38.2716 18.904C37.8983 19.128 37.5516 19.272 37.2316 19.336C36.805 19.336 36.4103 19.288 36.0476 19.192C35.685 19.096 35.3703 18.9627 35.1036 18.792C34.8476 18.632 34.645 18.4347 34.4956 18.2C34.357 17.976 34.2876 17.7253 34.2876 17.448C34.2876 17.1493 34.3623 16.776 34.5116 16.328C34.661 15.8693 34.8903 15.3307 35.1996 14.712C35.3276 14.7227 35.477 14.7547 35.6476 14.808C35.8183 14.8613 35.989 14.9253 36.1596 15C36.3303 15.0747 36.485 15.16 36.6236 15.256C36.7623 15.3413 36.8636 15.4267 36.9276 15.512C36.5863 15.864 36.309 16.2533 36.0956 16.68C35.8823 17.096 35.7756 17.4587 35.7756 17.768C35.7756 17.9493 35.8076 18.1093 35.8716 18.248C35.9463 18.3973 36.069 18.5307 36.2396 18.648C36.8903 18.4027 37.525 17.944 38.1436 17.272C38.7623 16.6107 39.3116 15.784 39.7916 14.792C40.0796 14.2053 40.341 13.5333 40.5756 12.776C40.8103 12.0187 41.0076 11.2613 41.1676 10.504C41.3383 9.736 41.4663 9.00533 41.5516 8.312C41.6476 7.608 41.6956 7.016 41.6956 6.536C41.6956 6.46133 41.6903 6.36 41.6796 6.232C41.6796 6.09333 41.6743 5.95467 41.6636 5.816C41.6636 5.66667 41.6583 5.53333 41.6476 5.416C41.637 5.29867 41.6316 5.21867 41.6316 5.176ZM44.2031 17.608C44.0325 17.5867 43.8511 17.512 43.6591 17.384C43.4778 17.2667 43.3605 17.1333 43.3071 16.984C43.3071 16.856 43.3231 16.6907 43.3551 16.488C43.3978 16.2853 43.4458 16.0827 43.4991 15.88C43.5525 15.6667 43.6058 15.4693 43.6591 15.288C43.7125 15.096 43.7498 14.952 43.7711 14.856C43.8991 14.856 44.0591 14.888 44.2511 14.952C44.4538 15.016 44.6565 15.1067 44.8591 15.224C45.0725 15.3307 45.2698 15.4587 45.4511 15.608C45.6431 15.7467 45.7871 15.8907 45.8831 16.04C45.7871 16.2533 45.6645 16.456 45.5151 16.648C45.3658 16.84 45.2058 17.0053 45.0351 17.144C44.8751 17.2933 44.7205 17.4053 44.5711 17.48C44.4218 17.5653 44.2991 17.608 44.2031 17.608ZM50.4145 7.976C50.3718 7.82667 50.3345 7.656 50.3025 7.464C50.2812 7.26133 50.2705 6.968 50.2705 6.584C50.2705 6.33867 50.2758 6.09333 50.2865 5.848C50.2972 5.592 50.3452 5.37333 50.4305 5.192C50.9532 5.288 51.5078 5.37867 52.0945 5.464C52.6918 5.53867 53.2998 5.608 53.9185 5.672C54.5372 5.736 55.1558 5.78933 55.7745 5.832C56.3932 5.864 56.9905 5.88 57.5665 5.88C58.3558 5.88 58.9905 5.848 59.4705 5.784C59.6412 6.01867 59.7478 6.296 59.7905 6.616C59.8332 6.936 59.8545 7.23467 59.8545 7.512C58.6278 8.01333 57.4652 8.65333 56.3665 9.432C55.2678 10.2 54.2705 11.0053 53.3745 11.848C52.4785 12.6907 51.7052 13.5227 51.0545 14.344C50.4038 15.1653 49.9185 15.88 49.5985 16.488C49.7905 16.456 49.9878 16.4293 50.1905 16.408C50.3932 16.376 50.6118 16.3493 50.8465 16.328C51.0812 16.3067 51.3425 16.2853 51.6305 16.264C51.9185 16.2427 52.2492 16.2213 52.6225 16.2C53.1452 16.168 53.6038 16.1147 53.9985 16.04C54.3932 15.9547 54.7292 15.8693 55.0065 15.784C55.2838 15.688 55.5025 15.6027 55.6625 15.528C55.8332 15.4427 55.9558 15.3733 56.0305 15.32C56.0732 15.416 56.1212 15.56 56.1745 15.752C56.2385 15.944 56.2918 16.1573 56.3345 16.392C56.3878 16.616 56.4305 16.8453 56.4625 17.08C56.4945 17.3253 56.5105 17.5493 56.5105 17.752C56.5105 17.8587 56.5052 17.928 56.4945 17.96C56.4945 18.0027 56.4892 18.0453 56.4785 18.088C55.9985 18.056 55.5132 18.0187 55.0225 17.976C54.5425 17.9333 54.0625 17.912 53.5825 17.912C52.9425 17.912 52.2758 17.944 51.5825 18.008C50.8998 18.0827 50.2385 18.1893 49.5985 18.328C48.9692 18.4773 48.3878 18.664 47.8545 18.888C47.3318 19.112 46.9105 19.3787 46.5905 19.688C46.5052 19.4107 46.4145 19.1707 46.3185 18.968C46.2332 18.776 46.1905 18.5413 46.1905 18.264C46.1905 17.9867 46.2438 17.7627 46.3505 17.592C46.4678 17.432 46.6225 17.2987 46.8145 17.192C47.4545 16.2747 48.1798 15.368 48.9905 14.472C49.8118 13.5653 50.6865 12.6907 51.6145 11.848C52.5425 11.0053 53.5025 10.2053 54.4945 9.448C55.4865 8.68 56.4785 7.98133 57.4705 7.352C56.8305 7.32 56.1532 7.304 55.4385 7.304C54.9372 7.304 54.4412 7.31467 53.9505 7.336C53.4598 7.35733 52.9958 7.39467 52.5585 7.448C52.1212 7.49067 51.7158 7.56 51.3425 7.656C50.9798 7.74133 50.6705 7.848 50.4145 7.976Z" fill="white"/>
</svg>
